<?xml version="1.0" encoding="UTF-8" standalone="no"?>
<!DOCTYPE svg PUBLIC "-//W3C//DTD SVG 1.1//EN"
 "http://www.w3.org/Graphics/SVG/1.1/DTD/svg11.dtd">
<!-- Generated by graphviz version 3.0.0 (20220226.1711)
 -->
<!-- Title: dependencies Pages: 1 -->
<svg width="450pt" height="174pt"
 viewBox="0.00 0.00 450.00 173.80" xmlns="http://www.w3.org/2000/svg" xmlns:xlink="http://www.w3.org/1999/xlink">
<g id="graph0" class="graph" transform="scale(1 1) rotate(0) translate(4 169.8)">
<title>dependencies</title>
<polygon fill="white" stroke="transparent" points="-4,4 -4,-169.8 446,-169.8 446,4 -4,4"/>
<text text-anchor="middle" x="221" y="-8.2" font-family="sans-serif" font-size="14.00">dependencies</text>
<g id="clust1" class="cluster">
<title>cluster_RechercherCoursPageModule</title>
<polygon fill="none" stroke="black" stroke-dasharray="1,5" points="8,-32.8 8,-157.8 434,-157.8 434,-32.8 8,-32.8"/>
</g>
<g id="clust2" class="cluster">
<title>cluster_RechercherCoursPageModule_declarations</title>
<polygon fill="none" stroke="black" points="270,-40.8 270,-92.8 426,-92.8 426,-40.8 270,-40.8"/>
</g>
<g id="clust4" class="cluster">
<title>cluster_RechercherCoursPageModule_imports</title>
<polygon fill="none" stroke="black" points="16,-40.8 16,-92.8 262,-92.8 262,-40.8 16,-40.8"/>
</g>
<!-- RechercherCoursPage -->
<g id="node1" class="node">
<title>RechercherCoursPage</title>
<polygon fill="#ffffb3" stroke="black" points="418.39,-84.8 277.61,-84.8 277.61,-48.8 418.39,-48.8 418.39,-84.8"/>
<text text-anchor="middle" x="348" y="-62.6" font-family="Times,serif" font-size="14.00">RechercherCoursPage</text>
</g>
<!-- RechercherCoursPageModule -->
<g id="node2" class="node">
<title>RechercherCoursPageModule</title>
<polygon fill="#8dd3c7" stroke="black" points="327.95,-149.8 324.95,-153.8 303.95,-153.8 300.95,-149.8 144.05,-149.8 144.05,-113.8 327.95,-113.8 327.95,-149.8"/>
<text text-anchor="middle" x="236" y="-127.6" font-family="Times,serif" font-size="14.00">RechercherCoursPageModule</text>
</g>
<!-- RechercherCoursPage&#45;&gt;RechercherCoursPageModule -->
<g id="edge1" class="edge">
<title>RechercherCoursPage&#45;&gt;RechercherCoursPageModule</title>
<path fill="none" stroke="black" d="M302.89,-84.91C302.89,-84.91 302.89,-103.79 302.89,-103.79"/>
<polygon fill="black" stroke="black" points="299.39,-103.79 302.89,-113.79 306.39,-103.79 299.39,-103.79"/>
</g>
<!-- RechercherCoursPageRoutingModule -->
<g id="node3" class="node">
<title>RechercherCoursPageRoutingModule</title>
<polygon fill="#8dd3c7" stroke="black" points="253.56,-84.8 250.56,-88.8 229.56,-88.8 226.56,-84.8 24.44,-84.8 24.44,-48.8 253.56,-48.8 253.56,-84.8"/>
<text text-anchor="middle" x="139" y="-62.6" font-family="Times,serif" font-size="14.00">RechercherCoursPageRoutingModule</text>
</g>
<!-- RechercherCoursPageRoutingModule&#45;&gt;RechercherCoursPageModule -->
<g id="edge2" class="edge">
<title>RechercherCoursPageRoutingModule&#45;&gt;RechercherCoursPageModule</title>
<path fill="none" stroke="black" d="M198.78,-84.91C198.78,-84.91 198.78,-103.79 198.78,-103.79"/>
<polygon fill="black" stroke="black" points="195.28,-103.79 198.78,-113.79 202.28,-103.79 195.28,-103.79"/>
</g>
</g>
</svg>
