<?xml version="1.0" encoding="UTF-8" standalone="no"?>
<!DOCTYPE svg PUBLIC "-//W3C//DTD SVG 1.1//EN"
 "http://www.w3.org/Graphics/SVG/1.1/DTD/svg11.dtd">
<!-- Generated by graphviz version 3.0.0 (20220226.1711)
 -->
<!-- Title: dependencies Pages: 1 -->
<svg width="510pt" height="174pt"
 viewBox="0.00 0.00 510.00 173.80" xmlns="http://www.w3.org/2000/svg" xmlns:xlink="http://www.w3.org/1999/xlink">
<g id="graph0" class="graph" transform="scale(1 1) rotate(0) translate(4 169.8)">
<title>dependencies</title>
<polygon fill="white" stroke="transparent" points="-4,4 -4,-169.8 506,-169.8 506,4 -4,4"/>
<text text-anchor="middle" x="251" y="-8.2" font-family="sans-serif" font-size="14.00">dependencies</text>
<g id="clust1" class="cluster">
<title>cluster_ListeCoursPageModule</title>
<polygon fill="none" stroke="black" stroke-dasharray="1,5" points="8,-32.8 8,-157.8 494,-157.8 494,-32.8 8,-32.8"/>
</g>
<g id="clust2" class="cluster">
<title>cluster_ListeCoursPageModule_declarations</title>
<polygon fill="none" stroke="black" points="234,-40.8 234,-92.8 486,-92.8 486,-40.8 234,-40.8"/>
</g>
<g id="clust5" class="cluster">
<title>cluster_ListeCoursPageModule_imports</title>
<polygon fill="none" stroke="black" points="16,-40.8 16,-92.8 226,-92.8 226,-40.8 16,-40.8"/>
</g>
<!-- ListeCoursPage -->
<g id="node1" class="node">
<title>ListeCoursPage</title>
<polygon fill="#ffffb3" stroke="black" points="478.16,-84.8 373.84,-84.8 373.84,-48.8 478.16,-48.8 478.16,-84.8"/>
<text text-anchor="middle" x="426" y="-62.6" font-family="Times,serif" font-size="14.00">ListeCoursPage</text>
</g>
<!-- ListeCoursPageModule -->
<g id="node3" class="node">
<title>ListeCoursPageModule</title>
<polygon fill="#8dd3c7" stroke="black" points="373.21,-149.8 370.21,-153.8 349.21,-153.8 346.21,-149.8 224.79,-149.8 224.79,-113.8 373.21,-113.8 373.21,-149.8"/>
<text text-anchor="middle" x="299" y="-127.6" font-family="Times,serif" font-size="14.00">ListeCoursPageModule</text>
</g>
<!-- ListeCoursPage&#45;&gt;ListeCoursPageModule -->
<g id="edge1" class="edge">
<title>ListeCoursPage&#45;&gt;ListeCoursPageModule</title>
<path fill="none" stroke="black" d="M373.72,-66.8C368.09,-66.8 364.36,-66.8 364.36,-66.8 364.36,-66.8 364.36,-103.69 364.36,-103.69"/>
<polygon fill="black" stroke="black" points="360.86,-103.69 364.36,-113.69 367.86,-103.69 360.86,-103.69"/>
</g>
<!-- SaisirComponent -->
<g id="node2" class="node">
<title>SaisirComponent</title>
<polygon fill="#ffffb3" stroke="black" points="355.72,-84.8 242.28,-84.8 242.28,-48.8 355.72,-48.8 355.72,-84.8"/>
<text text-anchor="middle" x="299" y="-62.6" font-family="Times,serif" font-size="14.00">SaisirComponent</text>
</g>
<!-- SaisirComponent&#45;&gt;ListeCoursPageModule -->
<g id="edge2" class="edge">
<title>SaisirComponent&#45;&gt;ListeCoursPageModule</title>
<path fill="none" stroke="black" d="M299,-84.91C299,-84.91 299,-103.79 299,-103.79"/>
<polygon fill="black" stroke="black" points="295.5,-103.79 299,-113.79 302.5,-103.79 295.5,-103.79"/>
</g>
<!-- ListeCoursPageRoutingModule -->
<g id="node4" class="node">
<title>ListeCoursPageRoutingModule</title>
<polygon fill="#8dd3c7" stroke="black" points="217.82,-84.8 214.82,-88.8 193.82,-88.8 190.82,-84.8 24.18,-84.8 24.18,-48.8 217.82,-48.8 217.82,-84.8"/>
<text text-anchor="middle" x="121" y="-62.6" font-family="Times,serif" font-size="14.00">ListeCoursPageRoutingModule</text>
</g>
<!-- ListeCoursPageRoutingModule&#45;&gt;ListeCoursPageModule -->
<g id="edge3" class="edge">
<title>ListeCoursPageRoutingModule&#45;&gt;ListeCoursPageModule</title>
<path fill="none" stroke="black" d="M217.98,-66.8C227.46,-66.8 233.64,-66.8 233.64,-66.8 233.64,-66.8 233.64,-103.69 233.64,-103.69"/>
<polygon fill="black" stroke="black" points="230.14,-103.69 233.64,-113.69 237.14,-103.69 230.14,-103.69"/>
</g>
</g>
</svg>
