<?xml version="1.0" encoding="UTF-8" standalone="no"?>
<!DOCTYPE svg PUBLIC "-//W3C//DTD SVG 1.1//EN"
 "http://www.w3.org/Graphics/SVG/1.1/DTD/svg11.dtd">
<!-- Generated by graphviz version 3.0.0 (20220226.1711)
 -->
<!-- Title: dependencies Pages: 1 -->
<svg width="388pt" height="174pt"
 viewBox="0.00 0.00 388.00 173.80" xmlns="http://www.w3.org/2000/svg" xmlns:xlink="http://www.w3.org/1999/xlink">
<g id="graph0" class="graph" transform="scale(1 1) rotate(0) translate(4 169.8)">
<title>dependencies</title>
<polygon fill="white" stroke="transparent" points="-4,4 -4,-169.8 384,-169.8 384,4 -4,4"/>
<text text-anchor="middle" x="190" y="-8.2" font-family="sans-serif" font-size="14.00">dependencies</text>
<g id="clust1" class="cluster">
<title>cluster_SaisieCoursPageModule</title>
<polygon fill="none" stroke="black" stroke-dasharray="1,5" points="8,-32.8 8,-157.8 372,-157.8 372,-32.8 8,-32.8"/>
</g>
<g id="clust4" class="cluster">
<title>cluster_SaisieCoursPageModule_imports</title>
<polygon fill="none" stroke="black" points="150,-40.8 150,-92.8 364,-92.8 364,-40.8 150,-40.8"/>
</g>
<g id="clust2" class="cluster">
<title>cluster_SaisieCoursPageModule_declarations</title>
<polygon fill="none" stroke="black" points="16,-40.8 16,-92.8 142,-92.8 142,-40.8 16,-40.8"/>
</g>
<!-- SaisieCoursPage -->
<g id="node1" class="node">
<title>SaisieCoursPage</title>
<polygon fill="#ffffb3" stroke="black" points="134.1,-84.8 23.9,-84.8 23.9,-48.8 134.1,-48.8 134.1,-84.8"/>
<text text-anchor="middle" x="79" y="-62.6" font-family="Times,serif" font-size="14.00">SaisieCoursPage</text>
</g>
<!-- SaisieCoursPageModule -->
<g id="node2" class="node">
<title>SaisieCoursPageModule</title>
<polygon fill="#8dd3c7" stroke="black" points="251.66,-149.8 248.66,-153.8 227.66,-153.8 224.66,-149.8 98.34,-149.8 98.34,-113.8 251.66,-113.8 251.66,-149.8"/>
<text text-anchor="middle" x="175" y="-127.6" font-family="Times,serif" font-size="14.00">SaisieCoursPageModule</text>
</g>
<!-- SaisieCoursPage&#45;&gt;SaisieCoursPageModule -->
<g id="edge1" class="edge">
<title>SaisieCoursPage&#45;&gt;SaisieCoursPageModule</title>
<path fill="none" stroke="black" d="M116.11,-84.91C116.11,-84.91 116.11,-103.79 116.11,-103.79"/>
<polygon fill="black" stroke="black" points="112.61,-103.79 116.11,-113.79 119.61,-103.79 112.61,-103.79"/>
</g>
<!-- SaisieCoursPageRoutingModule -->
<g id="node3" class="node">
<title>SaisieCoursPageRoutingModule</title>
<polygon fill="#8dd3c7" stroke="black" points="356.27,-84.8 353.27,-88.8 332.27,-88.8 329.27,-84.8 157.73,-84.8 157.73,-48.8 356.27,-48.8 356.27,-84.8"/>
<text text-anchor="middle" x="257" y="-62.6" font-family="Times,serif" font-size="14.00">SaisieCoursPageRoutingModule</text>
</g>
<!-- SaisieCoursPageRoutingModule&#45;&gt;SaisieCoursPageModule -->
<g id="edge2" class="edge">
<title>SaisieCoursPageRoutingModule&#45;&gt;SaisieCoursPageModule</title>
<path fill="none" stroke="black" d="M204.72,-84.91C204.72,-84.91 204.72,-103.79 204.72,-103.79"/>
<polygon fill="black" stroke="black" points="201.22,-103.79 204.72,-113.79 208.22,-103.79 201.22,-103.79"/>
</g>
</g>
</svg>
