<?xml version="1.0" encoding="UTF-8" standalone="no"?>
<!DOCTYPE svg PUBLIC "-//W3C//DTD SVG 1.1//EN"
 "http://www.w3.org/Graphics/SVG/1.1/DTD/svg11.dtd">
<!-- Generated by graphviz version 3.0.0 (20220226.1711)
 -->
<!-- Title: dependencies Pages: 1 -->
<svg width="2382pt" height="247pt"
 viewBox="0.00 0.00 2382.00 246.80" xmlns="http://www.w3.org/2000/svg" xmlns:xlink="http://www.w3.org/1999/xlink">
<g id="graph0" class="graph" transform="scale(1 1) rotate(0) translate(4 242.8)">
<title>dependencies</title>
<polygon fill="white" stroke="transparent" points="-4,4 -4,-242.8 2378,-242.8 2378,4 -4,4"/>
<text text-anchor="middle" x="1187" y="-8.2" font-family="sans-serif" font-size="14.00">dependencies</text>
<g id="clust1" class="cluster">
<title>cluster_AppModule</title>
<polygon fill="none" stroke="black" stroke-dasharray="1,5" points="8,-32.8 8,-230.8 430,-230.8 430,-32.8 8,-32.8"/>
</g>
<g id="clust2" class="cluster">
<title>cluster_AppModule_declarations</title>
<polygon fill="none" stroke="black" points="168,-40.8 168,-92.8 422,-92.8 422,-40.8 168,-40.8"/>
</g>
<g id="clust5" class="cluster">
<title>cluster_AppModule_imports</title>
<polygon fill="none" stroke="black" points="16,-40.8 16,-92.8 160,-92.8 160,-40.8 16,-40.8"/>
</g>
<g id="clust7" class="cluster">
<title>cluster_AppModule_bootstrap</title>
<polygon fill="none" stroke="black" points="171,-170.8 171,-222.8 295,-222.8 295,-170.8 171,-170.8"/>
</g>
<g id="clust15" class="cluster">
<title>cluster_CoursesPageModule</title>
<polygon fill="none" stroke="black" stroke-dasharray="1,5" points="438,-32.8 438,-157.8 758,-157.8 758,-32.8 438,-32.8"/>
</g>
<g id="clust16" class="cluster">
<title>cluster_CoursesPageModule_declarations</title>
<polygon fill="none" stroke="black" points="646,-40.8 646,-92.8 750,-92.8 750,-40.8 646,-40.8"/>
</g>
<g id="clust18" class="cluster">
<title>cluster_CoursesPageModule_imports</title>
<polygon fill="none" stroke="black" points="446,-40.8 446,-92.8 638,-92.8 638,-40.8 446,-40.8"/>
</g>
<g id="clust28" class="cluster">
<title>cluster_HomePageModule</title>
<polygon fill="none" stroke="black" stroke-dasharray="1,5" points="766,-32.8 766,-157.8 1066,-157.8 1066,-32.8 766,-32.8"/>
</g>
<g id="clust29" class="cluster">
<title>cluster_HomePageModule_declarations</title>
<polygon fill="none" stroke="black" points="964,-40.8 964,-92.8 1058,-92.8 1058,-40.8 964,-40.8"/>
</g>
<g id="clust31" class="cluster">
<title>cluster_HomePageModule_imports</title>
<polygon fill="none" stroke="black" points="774,-40.8 774,-92.8 956,-92.8 956,-40.8 774,-40.8"/>
</g>
<g id="clust41" class="cluster">
<title>cluster_ListeCoursPageModule</title>
<polygon fill="none" stroke="black" stroke-dasharray="1,5" points="1074,-32.8 1074,-157.8 1560,-157.8 1560,-32.8 1074,-32.8"/>
</g>
<g id="clust42" class="cluster">
<title>cluster_ListeCoursPageModule_declarations</title>
<polygon fill="none" stroke="black" points="1300,-40.8 1300,-92.8 1552,-92.8 1552,-40.8 1300,-40.8"/>
</g>
<g id="clust45" class="cluster">
<title>cluster_ListeCoursPageModule_imports</title>
<polygon fill="none" stroke="black" points="1082,-40.8 1082,-92.8 1292,-92.8 1292,-40.8 1082,-40.8"/>
</g>
<g id="clust55" class="cluster">
<title>cluster_RechercherCoursPageModule</title>
<polygon fill="none" stroke="black" stroke-dasharray="1,5" points="1568,-32.8 1568,-157.8 1994,-157.8 1994,-32.8 1568,-32.8"/>
</g>
<g id="clust56" class="cluster">
<title>cluster_RechercherCoursPageModule_declarations</title>
<polygon fill="none" stroke="black" points="1830,-40.8 1830,-92.8 1986,-92.8 1986,-40.8 1830,-40.8"/>
</g>
<g id="clust58" class="cluster">
<title>cluster_RechercherCoursPageModule_imports</title>
<polygon fill="none" stroke="black" points="1576,-40.8 1576,-92.8 1822,-92.8 1822,-40.8 1576,-40.8"/>
</g>
<g id="clust68" class="cluster">
<title>cluster_SaisieCoursPageModule</title>
<polygon fill="none" stroke="black" stroke-dasharray="1,5" points="2002,-32.8 2002,-157.8 2366,-157.8 2366,-32.8 2002,-32.8"/>
</g>
<g id="clust69" class="cluster">
<title>cluster_SaisieCoursPageModule_declarations</title>
<polygon fill="none" stroke="black" points="2232,-40.8 2232,-92.8 2358,-92.8 2358,-40.8 2232,-40.8"/>
</g>
<g id="clust71" class="cluster">
<title>cluster_SaisieCoursPageModule_imports</title>
<polygon fill="none" stroke="black" points="2010,-40.8 2010,-92.8 2224,-92.8 2224,-40.8 2010,-40.8"/>
</g>
<!-- AppComponent -->
<g id="node1" class="node">
<title>AppComponent</title>
<polygon fill="#ffffb3" stroke="black" points="413.94,-84.8 308.06,-84.8 308.06,-48.8 413.94,-48.8 413.94,-84.8"/>
<text text-anchor="middle" x="361" y="-62.6" font-family="Times,serif" font-size="14.00">AppComponent</text>
</g>
<!-- AppModule -->
<g id="node3" class="node">
<title>AppModule</title>
<polygon fill="#8dd3c7" stroke="black" points="274.66,-149.8 271.66,-153.8 250.66,-153.8 247.66,-149.8 191.34,-149.8 191.34,-113.8 274.66,-113.8 274.66,-149.8"/>
<text text-anchor="middle" x="233" y="-127.6" font-family="Times,serif" font-size="14.00">AppModule</text>
</g>
<!-- AppComponent&#45;&gt;AppModule -->
<g id="edge1" class="edge">
<title>AppComponent&#45;&gt;AppModule</title>
<path fill="none" stroke="black" d="M361,-84.91C361,-104.14 361,-131.8 361,-131.8 361,-131.8 284.91,-131.8 284.91,-131.8"/>
<polygon fill="black" stroke="black" points="284.91,-128.3 274.91,-131.8 284.91,-135.3 284.91,-128.3"/>
</g>
<!-- MenuComponent -->
<g id="node2" class="node">
<title>MenuComponent</title>
<polygon fill="#ffffb3" stroke="black" points="289.99,-84.8 176.01,-84.8 176.01,-48.8 289.99,-48.8 289.99,-84.8"/>
<text text-anchor="middle" x="233" y="-62.6" font-family="Times,serif" font-size="14.00">MenuComponent</text>
</g>
<!-- MenuComponent&#45;&gt;AppModule -->
<g id="edge2" class="edge">
<title>MenuComponent&#45;&gt;AppModule</title>
<path fill="none" stroke="black" d="M233,-84.91C233,-84.91 233,-103.79 233,-103.79"/>
<polygon fill="black" stroke="black" points="229.5,-103.79 233,-113.79 236.5,-103.79 229.5,-103.79"/>
</g>
<!-- AppComponent  -->
<g id="node5" class="node">
<title>AppComponent </title>
<polygon fill="#80b1d3" stroke="black" points="287.44,-214.8 178.56,-214.8 178.56,-178.8 287.44,-178.8 287.44,-214.8"/>
<text text-anchor="middle" x="233" y="-192.6" font-family="Times,serif" font-size="14.00">AppComponent </text>
</g>
<!-- AppModule&#45;&gt;AppComponent  -->
<g id="edge4" class="edge">
<title>AppModule&#45;&gt;AppComponent </title>
<path fill="none" stroke="black" stroke-dasharray="1,5" d="M233,-149.91C233,-149.91 233,-168.79 233,-168.79"/>
<polygon fill="black" stroke="black" points="229.5,-168.79 233,-178.79 236.5,-168.79 229.5,-168.79"/>
</g>
<!-- AppRoutingModule -->
<g id="node4" class="node">
<title>AppRoutingModule</title>
<polygon fill="#8dd3c7" stroke="black" points="152.28,-84.8 149.28,-88.8 128.28,-88.8 125.28,-84.8 23.72,-84.8 23.72,-48.8 152.28,-48.8 152.28,-84.8"/>
<text text-anchor="middle" x="88" y="-62.6" font-family="Times,serif" font-size="14.00">AppRoutingModule</text>
</g>
<!-- AppRoutingModule&#45;&gt;AppModule -->
<g id="edge3" class="edge">
<title>AppRoutingModule&#45;&gt;AppModule</title>
<path fill="none" stroke="black" d="M88,-84.91C88,-104.14 88,-131.8 88,-131.8 88,-131.8 181.06,-131.8 181.06,-131.8"/>
<polygon fill="black" stroke="black" points="181.06,-135.3 191.06,-131.8 181.06,-128.3 181.06,-135.3"/>
</g>
<!-- CoursesPage -->
<g id="node6" class="node">
<title>CoursesPage</title>
<polygon fill="#ffffb3" stroke="black" points="742.32,-84.8 653.68,-84.8 653.68,-48.8 742.32,-48.8 742.32,-84.8"/>
<text text-anchor="middle" x="698" y="-62.6" font-family="Times,serif" font-size="14.00">CoursesPage</text>
</g>
<!-- CoursesPageModule -->
<g id="node7" class="node">
<title>CoursesPageModule</title>
<polygon fill="#8dd3c7" stroke="black" points="678.88,-149.8 675.88,-153.8 654.88,-153.8 651.88,-149.8 547.12,-149.8 547.12,-113.8 678.88,-113.8 678.88,-149.8"/>
<text text-anchor="middle" x="613" y="-127.6" font-family="Times,serif" font-size="14.00">CoursesPageModule</text>
</g>
<!-- CoursesPage&#45;&gt;CoursesPageModule -->
<g id="edge5" class="edge">
<title>CoursesPage&#45;&gt;CoursesPageModule</title>
<path fill="none" stroke="black" d="M666.39,-84.91C666.39,-84.91 666.39,-103.79 666.39,-103.79"/>
<polygon fill="black" stroke="black" points="662.89,-103.79 666.39,-113.79 669.89,-103.79 662.89,-103.79"/>
</g>
<!-- CoursesPageRoutingModule -->
<g id="node8" class="node">
<title>CoursesPageRoutingModule</title>
<polygon fill="#8dd3c7" stroke="black" points="630.49,-84.8 627.49,-88.8 606.49,-88.8 603.49,-84.8 453.51,-84.8 453.51,-48.8 630.49,-48.8 630.49,-84.8"/>
<text text-anchor="middle" x="542" y="-62.6" font-family="Times,serif" font-size="14.00">CoursesPageRoutingModule</text>
</g>
<!-- CoursesPageRoutingModule&#45;&gt;CoursesPageModule -->
<g id="edge6" class="edge">
<title>CoursesPageRoutingModule&#45;&gt;CoursesPageModule</title>
<path fill="none" stroke="black" d="M588.78,-84.91C588.78,-84.91 588.78,-103.79 588.78,-103.79"/>
<polygon fill="black" stroke="black" points="585.28,-103.79 588.78,-113.79 592.28,-103.79 585.28,-103.79"/>
</g>
<!-- HomePage -->
<g id="node9" class="node">
<title>HomePage</title>
<polygon fill="#ffffb3" stroke="black" points="1049.93,-84.8 972.07,-84.8 972.07,-48.8 1049.93,-48.8 1049.93,-84.8"/>
<text text-anchor="middle" x="1011" y="-62.6" font-family="Times,serif" font-size="14.00">HomePage</text>
</g>
<!-- HomePageModule -->
<g id="node10" class="node">
<title>HomePageModule</title>
<polygon fill="#8dd3c7" stroke="black" points="991.48,-149.8 988.48,-153.8 967.48,-153.8 964.48,-149.8 870.52,-149.8 870.52,-113.8 991.48,-113.8 991.48,-149.8"/>
<text text-anchor="middle" x="931" y="-127.6" font-family="Times,serif" font-size="14.00">HomePageModule</text>
</g>
<!-- HomePage&#45;&gt;HomePageModule -->
<g id="edge7" class="edge">
<title>HomePage&#45;&gt;HomePageModule</title>
<path fill="none" stroke="black" d="M981.89,-84.91C981.89,-84.91 981.89,-103.79 981.89,-103.79"/>
<polygon fill="black" stroke="black" points="978.39,-103.79 981.89,-113.79 985.39,-103.79 978.39,-103.79"/>
</g>
<!-- HomePageRoutingModule -->
<g id="node11" class="node">
<title>HomePageRoutingModule</title>
<polygon fill="#8dd3c7" stroke="black" points="948.1,-84.8 945.1,-88.8 924.1,-88.8 921.1,-84.8 781.9,-84.8 781.9,-48.8 948.1,-48.8 948.1,-84.8"/>
<text text-anchor="middle" x="865" y="-62.6" font-family="Times,serif" font-size="14.00">HomePageRoutingModule</text>
</g>
<!-- HomePageRoutingModule&#45;&gt;HomePageModule -->
<g id="edge8" class="edge">
<title>HomePageRoutingModule&#45;&gt;HomePageModule</title>
<path fill="none" stroke="black" d="M909.28,-84.91C909.28,-84.91 909.28,-103.79 909.28,-103.79"/>
<polygon fill="black" stroke="black" points="905.78,-103.79 909.28,-113.79 912.78,-103.79 905.78,-103.79"/>
</g>
<!-- ListeCoursPage -->
<g id="node12" class="node">
<title>ListeCoursPage</title>
<polygon fill="#ffffb3" stroke="black" points="1544.16,-84.8 1439.84,-84.8 1439.84,-48.8 1544.16,-48.8 1544.16,-84.8"/>
<text text-anchor="middle" x="1492" y="-62.6" font-family="Times,serif" font-size="14.00">ListeCoursPage</text>
</g>
<!-- ListeCoursPageModule -->
<g id="node14" class="node">
<title>ListeCoursPageModule</title>
<polygon fill="#8dd3c7" stroke="black" points="1439.21,-149.8 1436.21,-153.8 1415.21,-153.8 1412.21,-149.8 1290.79,-149.8 1290.79,-113.8 1439.21,-113.8 1439.21,-149.8"/>
<text text-anchor="middle" x="1365" y="-127.6" font-family="Times,serif" font-size="14.00">ListeCoursPageModule</text>
</g>
<!-- ListeCoursPage&#45;&gt;ListeCoursPageModule -->
<g id="edge9" class="edge">
<title>ListeCoursPage&#45;&gt;ListeCoursPageModule</title>
<path fill="none" stroke="black" d="M1439.72,-66.8C1434.09,-66.8 1430.36,-66.8 1430.36,-66.8 1430.36,-66.8 1430.36,-103.69 1430.36,-103.69"/>
<polygon fill="black" stroke="black" points="1426.86,-103.69 1430.36,-113.69 1433.86,-103.69 1426.86,-103.69"/>
</g>
<!-- SaisirComponent -->
<g id="node13" class="node">
<title>SaisirComponent</title>
<polygon fill="#ffffb3" stroke="black" points="1421.72,-84.8 1308.28,-84.8 1308.28,-48.8 1421.72,-48.8 1421.72,-84.8"/>
<text text-anchor="middle" x="1365" y="-62.6" font-family="Times,serif" font-size="14.00">SaisirComponent</text>
</g>
<!-- SaisirComponent&#45;&gt;ListeCoursPageModule -->
<g id="edge10" class="edge">
<title>SaisirComponent&#45;&gt;ListeCoursPageModule</title>
<path fill="none" stroke="black" d="M1365,-84.91C1365,-84.91 1365,-103.79 1365,-103.79"/>
<polygon fill="black" stroke="black" points="1361.5,-103.79 1365,-113.79 1368.5,-103.79 1361.5,-103.79"/>
</g>
<!-- ListeCoursPageRoutingModule -->
<g id="node15" class="node">
<title>ListeCoursPageRoutingModule</title>
<polygon fill="#8dd3c7" stroke="black" points="1283.82,-84.8 1280.82,-88.8 1259.82,-88.8 1256.82,-84.8 1090.18,-84.8 1090.18,-48.8 1283.82,-48.8 1283.82,-84.8"/>
<text text-anchor="middle" x="1187" y="-62.6" font-family="Times,serif" font-size="14.00">ListeCoursPageRoutingModule</text>
</g>
<!-- ListeCoursPageRoutingModule&#45;&gt;ListeCoursPageModule -->
<g id="edge11" class="edge">
<title>ListeCoursPageRoutingModule&#45;&gt;ListeCoursPageModule</title>
<path fill="none" stroke="black" d="M1283.98,-66.8C1293.46,-66.8 1299.64,-66.8 1299.64,-66.8 1299.64,-66.8 1299.64,-103.69 1299.64,-103.69"/>
<polygon fill="black" stroke="black" points="1296.14,-103.69 1299.64,-113.69 1303.14,-103.69 1296.14,-103.69"/>
</g>
<!-- RechercherCoursPage -->
<g id="node16" class="node">
<title>RechercherCoursPage</title>
<polygon fill="#ffffb3" stroke="black" points="1978.39,-84.8 1837.61,-84.8 1837.61,-48.8 1978.39,-48.8 1978.39,-84.8"/>
<text text-anchor="middle" x="1908" y="-62.6" font-family="Times,serif" font-size="14.00">RechercherCoursPage</text>
</g>
<!-- RechercherCoursPageModule -->
<g id="node17" class="node">
<title>RechercherCoursPageModule</title>
<polygon fill="#8dd3c7" stroke="black" points="1887.95,-149.8 1884.95,-153.8 1863.95,-153.8 1860.95,-149.8 1704.05,-149.8 1704.05,-113.8 1887.95,-113.8 1887.95,-149.8"/>
<text text-anchor="middle" x="1796" y="-127.6" font-family="Times,serif" font-size="14.00">RechercherCoursPageModule</text>
</g>
<!-- RechercherCoursPage&#45;&gt;RechercherCoursPageModule -->
<g id="edge12" class="edge">
<title>RechercherCoursPage&#45;&gt;RechercherCoursPageModule</title>
<path fill="none" stroke="black" d="M1862.89,-84.91C1862.89,-84.91 1862.89,-103.79 1862.89,-103.79"/>
<polygon fill="black" stroke="black" points="1859.39,-103.79 1862.89,-113.79 1866.39,-103.79 1859.39,-103.79"/>
</g>
<!-- RechercherCoursPageRoutingModule -->
<g id="node18" class="node">
<title>RechercherCoursPageRoutingModule</title>
<polygon fill="#8dd3c7" stroke="black" points="1813.56,-84.8 1810.56,-88.8 1789.56,-88.8 1786.56,-84.8 1584.44,-84.8 1584.44,-48.8 1813.56,-48.8 1813.56,-84.8"/>
<text text-anchor="middle" x="1699" y="-62.6" font-family="Times,serif" font-size="14.00">RechercherCoursPageRoutingModule</text>
</g>
<!-- RechercherCoursPageRoutingModule&#45;&gt;RechercherCoursPageModule -->
<g id="edge13" class="edge">
<title>RechercherCoursPageRoutingModule&#45;&gt;RechercherCoursPageModule</title>
<path fill="none" stroke="black" d="M1758.78,-84.91C1758.78,-84.91 1758.78,-103.79 1758.78,-103.79"/>
<polygon fill="black" stroke="black" points="1755.28,-103.79 1758.78,-113.79 1762.28,-103.79 1755.28,-103.79"/>
</g>
<!-- SaisieCoursPage -->
<g id="node19" class="node">
<title>SaisieCoursPage</title>
<polygon fill="#ffffb3" stroke="black" points="2350.1,-84.8 2239.9,-84.8 2239.9,-48.8 2350.1,-48.8 2350.1,-84.8"/>
<text text-anchor="middle" x="2295" y="-62.6" font-family="Times,serif" font-size="14.00">SaisieCoursPage</text>
</g>
<!-- SaisieCoursPageModule -->
<g id="node20" class="node">
<title>SaisieCoursPageModule</title>
<polygon fill="#8dd3c7" stroke="black" points="2275.66,-149.8 2272.66,-153.8 2251.66,-153.8 2248.66,-149.8 2122.34,-149.8 2122.34,-113.8 2275.66,-113.8 2275.66,-149.8"/>
<text text-anchor="middle" x="2199" y="-127.6" font-family="Times,serif" font-size="14.00">SaisieCoursPageModule</text>
</g>
<!-- SaisieCoursPage&#45;&gt;SaisieCoursPageModule -->
<g id="edge14" class="edge">
<title>SaisieCoursPage&#45;&gt;SaisieCoursPageModule</title>
<path fill="none" stroke="black" d="M2257.89,-84.91C2257.89,-84.91 2257.89,-103.79 2257.89,-103.79"/>
<polygon fill="black" stroke="black" points="2254.39,-103.79 2257.89,-113.79 2261.39,-103.79 2254.39,-103.79"/>
</g>
<!-- SaisieCoursPageRoutingModule -->
<g id="node21" class="node">
<title>SaisieCoursPageRoutingModule</title>
<polygon fill="#8dd3c7" stroke="black" points="2216.27,-84.8 2213.27,-88.8 2192.27,-88.8 2189.27,-84.8 2017.73,-84.8 2017.73,-48.8 2216.27,-48.8 2216.27,-84.8"/>
<text text-anchor="middle" x="2117" y="-62.6" font-family="Times,serif" font-size="14.00">SaisieCoursPageRoutingModule</text>
</g>
<!-- SaisieCoursPageRoutingModule&#45;&gt;SaisieCoursPageModule -->
<g id="edge15" class="edge">
<title>SaisieCoursPageRoutingModule&#45;&gt;SaisieCoursPageModule</title>
<path fill="none" stroke="black" d="M2169.28,-84.91C2169.28,-84.91 2169.28,-103.79 2169.28,-103.79"/>
<polygon fill="black" stroke="black" points="2165.78,-103.79 2169.28,-113.79 2172.78,-103.79 2165.78,-103.79"/>
</g>
</g>
</svg>
